<?xml version="1.0" encoding="utf-8"?>
<!-- Generator: Adobe Illustrator 19.1.0, SVG Export Plug-In . SVG Version: 6.00 Build 0)  -->
<svg version="1.1" id="Layer_1" xmlns="http://www.w3.org/2000/svg" xmlns:xlink="http://www.w3.org/1999/xlink" x="0px" y="0px"
	 width="200px" height="200px" viewBox="0 0 200 200" style="enable-background:new 0 0 200 200;" xml:space="preserve">
<style type="text/css">
	.st0{display:none;fill:#C1272D;}
	.st1{fill:#C1272D;}
</style>
<path id="Tumblr" class="st0" d="M99.8,0C44.6,0-0.2,44.8-0.2,100c0,55.2,44.8,100,100,100c55.2,0,100-44.8,100-100
	C199.7,44.8,155,0,99.8,0z M105.5,171.1c-25,0-27.5-16.8-27.5-26.5V80H62V67.4C80,66.1,87.5,52,92.2,33H104v33h28v14h-28v58.3
	c0,11.6,3.1,16.8,12.1,16.8c4.6,0,12.1-2.5,19-7.6l7.5,8.8C132.4,165.9,119.3,171.1,105.5,171.1z"/>
<path id="Facebook_1_" class="st1" d="M99.8,0C44.6,0-0.2,44.8-0.2,100c0,55.2,44.8,100,100,100c55.2,0,100-44.8,100-100
	C199.7,44.8,155,0,99.8,0z M130.6,53.8c-1.9-1-4.2-1.9-6.8-2.6c-2.6-0.7-5.1-1.1-7.2-1.1c-9,0-13.5,6-13.5,18.1V82h25v20h-25v69H77
	v-69H64V82h13V69.2c0-12.6,3.1-22.6,9.2-29.9c6.1-7.3,14.3-11,24.6-11c8.2,0,16.5,2,24.9,6L130.6,53.8z"/>
<path id="LinkedIn" class="st0" d="M99.8,0C44.6,0-0.2,44.8-0.2,100c0,55.2,44.8,100,100,100c55.2,0,100-44.8,100-100
	C199.7,44.8,155,0,99.8,0z M76,150H51V71h25V150z M63.5,61.3c-7.7,0-12.7-5.5-12.7-12.3c0-6.9,5.2-12.3,13.1-12.3S76.6,42.1,76.7,49
	C76.7,55.8,71.7,61.3,63.5,61.3z M158,150h-24v-43.9C134,96,130.4,89,121.5,89c-6.8,0-10.9,4.7-12.6,9.2c-0.6,1.6-0.9,3.9-0.9,6.1
	V150H84V96.1c0-9.8-0.8-18.1-1.1-25.1h21.3l1.1,11h0.5c3.2-5,11-12.8,24.2-12.8c16.1,0,28.1,10.8,28.1,34V150z"/>
<g>
</g>
<g>
</g>
<g>
</g>
<g>
</g>
<g>
</g>
<g>
</g>
<g>
</g>
<g>
</g>
<g>
</g>
<g>
</g>
<g>
</g>
<g>
</g>
<g>
</g>
<g>
</g>
<g>
</g>
</svg>
