<svg xmlns="http://www.w3.org/2000/svg" width="200" height="200" viewBox="0 0 200 200"><style type="text/css">.st0{fill:#C1272D;}</style><path class="st0" d="M99.8 0c-55.2 0-100 44.8-100 100s44.8 100 100 100 100-44.8 100-100c-.1-55.2-44.8-100-100-100zm67.2 139.6c0 13.5-10.9 24.4-24.4 24.4h-85.2c-13.5 0-24.4-10.9-24.4-24.4v-80.2c0-13.5 10.9-24.4 24.4-24.4h85.1c13.5 0 24.4 10.9 24.4 24.4v80.2zm-17-71.5h-14.9c-2.3 0-4.3-1.9-4.3-4.3v-14c0-2.3 1.9-4.3 4.3-4.3h14.9c2.3 0 4.3 1.9 4.3 4.3v14c-.1 2.4-2 4.3-4.3 4.3zm-117 10.6h50.4v6.5h-50.4zm99.2 0h34.8v6.5h-34.8zm-24.2 56.2c-19.6 0-35.6-16-35.6-35.6s16-35.6 35.6-35.6 35.6 16 35.6 35.6-16 35.6-35.6 35.6zm0-62.3c-14.7 0-26.6 11.9-26.6 26.6s11.9 26.6 26.6 26.6c14.7 0 26.6-11.9 26.6-26.6s-11.9-26.6-26.6-26.6z"/></svg>